<?xml version="1.0" standalone="no"?>
<!DOCTYPE svg PUBLIC "-//W3C//DTD SVG 20010904//EN"
 "http://www.w3.org/TR/2001/REC-SVG-20010904/DTD/svg10.dtd">
<svg version="1.0" xmlns="http://www.w3.org/2000/svg"
 width="430.000000pt" height="382.000000pt" viewBox="0 0 430.000000 382.000000"
 preserveAspectRatio="xMidYMid meet">

<g transform="translate(0.000000,382.000000) scale(0.100000,-0.100000)"
fill="#000000" stroke="none">
<path d="M3056 3659 c-15 -18 -42 -39 -59 -48 -21 -11 -34 -27 -39 -48 -6 -24
-14 -33 -29 -33 -35 0 -69 -44 -69 -89 0 -56 7 -69 51 -91 36 -19 38 -22 28
-48 -6 -15 -21 -79 -34 -142 -13 -69 -33 -135 -49 -165 -23 -42 -26 -58 -21
-96 5 -34 0 -69 -19 -134 -14 -49 -26 -102 -26 -118 0 -27 2 -28 30 -22 55 12
323 8 368 -5 23 -7 42 -17 42 -21 0 -5 -32 -9 -72 -11 l-72 -3 -44 -73 c-27
-43 -42 -76 -36 -81 5 -5 45 -11 88 -13 l80 -3 41 77 c50 94 48 92 74 78 27
-14 27 -21 -9 -78 -39 -63 -38 -73 3 -65 48 9 67 30 67 75 0 36 1 38 33 38 43
0 119 27 135 47 17 24 15 50 -9 99 -24 50 -87 96 -166 121 -40 12 -55 23 -59
39 -10 41 -1 59 34 62 23 2 39 13 58 38 15 19 35 34 44 34 25 0 60 46 60 78 0
14 -5 40 -11 57 -11 28 -9 34 15 58 50 50 27 125 -49 161 -27 13 -49 15 -95
10 -50 -5 -60 -4 -60 8 0 9 -11 32 -25 52 -20 29 -25 49 -25 97 0 74 -18 119
-61 152 -56 42 -82 44 -113 6z m124 -261 c47 -32 57 -69 31 -107 -24 -34 -27
-92 -7 -124 19 -29 36 -125 36 -199 0 -59 -11 -73 -30 -38 -15 28 -38 25 -46
-5 -5 -20 -9 -23 -20 -14 -8 6 -14 17 -14 25 0 24 -39 26 -69 5 -37 -27 -45
-26 -61 4 -7 14 -21 25 -30 25 -9 0 -27 -11 -40 -25 -22 -23 -50 -34 -50 -19
0 4 13 30 29 58 20 34 35 82 46 145 28 163 57 227 125 274 33 23 61 21 100 -5z
m264 -123 c53 -49 15 -67 -163 -78 -63 -5 -46 83 19 94 79 14 116 10 144 -16z"/>
<path d="M3140 3335 c-16 -19 -9 -49 14 -53 35 -7 49 40 17 57 -14 8 -22 7
-31 -4z"/>
<path d="M1352 3265 c-17 -14 -42 -46 -57 -70 -28 -49 -32 -51 -70 -33 -19 9
-34 8 -67 -3 -60 -20 -91 -50 -124 -121 -26 -57 -29 -73 -29 -168 0 -58 6
-150 14 -206 7 -55 12 -138 9 -185 -4 -75 -9 -93 -51 -175 -28 -55 -64 -154
-92 -249 -25 -87 -50 -164 -55 -170 -6 -7 -33 -15 -61 -18 -28 -4 -57 -12 -65
-18 -27 -23 -16 -63 31 -111 30 -31 45 -55 45 -73 0 -54 46 -122 92 -137 8 -3
11 -38 10 -110 -3 -118 5 -149 50 -195 47 -48 114 -68 233 -68 90 0 106 3 158
29 44 21 66 40 88 74 38 60 61 144 57 208 -2 38 1 57 14 70 31 36 108 199 118
253 15 79 -12 298 -51 418 -23 71 -20 104 16 158 24 34 30 57 27 103 -3 35
-16 26 -48 -35 -16 -31 -35 -58 -40 -60 -17 -6 -37 53 -31 86 4 16 27 73 52
126 51 106 64 114 100 58 16 -25 27 -32 52 -33 17 0 35 5 38 10 4 6 16 8 26 5
29 -10 49 12 43 45 -9 45 23 60 129 60 96 0 90 3 159 -78 44 -50 78 -22 42 34
-30 45 -7 36 27 -10 22 -32 39 -46 56 -46 28 0 30 19 3 53 -26 33 -25 47 4 47
14 0 40 15 61 35 32 29 36 39 30 62 -3 16 -14 36 -23 47 -36 39 -67 46 -201
46 -122 0 -132 2 -167 25 -38 26 -117 35 -129 15 -3 -5 -34 -8 -68 -7 -34 1
-82 -5 -106 -13 -38 -12 -45 -12 -49 0 -11 32 -51 60 -87 60 -19 0 -35 3 -35
6 0 4 16 24 36 46 52 58 67 99 54 148 -22 82 -108 115 -168 65z m103 -50 c41
-40 33 -65 -50 -155 -23 -25 -46 -52 -51 -61 -5 -9 -30 -26 -56 -37 l-48 -21
0 46 c0 37 10 62 56 140 68 116 102 136 149 88z m-231 -113 c15 -17 15 -22 1
-55 -20 -48 -19 -107 2 -137 10 -13 17 -34 18 -45 0 -13 13 -26 35 -37 31 -16
37 -25 51 -84 l16 -67 -33 -58 c-53 -94 -169 -339 -188 -396 -20 -59 -18 -98
4 -98 10 0 27 37 52 110 48 139 168 381 216 435 29 33 46 43 80 47 55 7 54 2
-7 -134 -60 -134 -125 -402 -108 -447 15 -38 35 -1 52 92 17 92 28 122 40 110
3 -2 19 -50 35 -105 36 -122 60 -270 60 -379 0 -75 -3 -88 -39 -160 -22 -44
-47 -88 -55 -99 -14 -20 -15 -19 -53 16 -65 62 -170 109 -241 109 -108 -1
-194 -38 -239 -102 -14 -21 -31 -38 -38 -38 -23 0 -48 41 -56 92 -7 44 -15 59
-49 90 -47 42 -45 58 5 58 80 0 85 8 149 228 20 67 59 177 87 245 l51 122 -5
100 c-3 55 -11 166 -17 246 -12 140 -12 148 9 210 26 78 43 104 85 130 39 24
58 24 80 1z m265 -166 c10 -12 1 -18 -57 -35 -80 -24 -145 -27 -161 -7 -18 22
13 39 87 46 107 11 119 11 131 -4z m372 -14 c32 -27 20 -54 -22 -50 -35 3 -56
26 -46 52 8 21 39 20 68 -2z m-136 -22 c28 -31 4 -52 -54 -48 -47 3 -61 19
-47 54 8 22 79 18 101 -6z m-247 -52 c17 -17 15 -63 -3 -78 -8 -6 -23 -9 -35
-5 -15 5 -20 15 -20 45 0 46 30 66 58 38z m760 0 c20 -20 14 -47 -10 -53 -13
-3 -176 -6 -363 -8 l-340 -2 -3 26 c-3 24 1 27 42 32 30 4 54 2 73 -8 34 -18
77 -19 106 -3 12 7 49 11 82 10 33 -1 67 2 75 8 22 15 323 13 338 -2z m-858
-30 c0 -16 -3 -19 -11 -11 -6 6 -8 16 -5 22 11 17 16 13 16 -11z m321 -135
c23 -47 22 -49 -10 -14 -35 38 -36 41 -18 41 8 0 20 -12 28 -27z m-430 -1044
c147 -68 184 -176 111 -321 -22 -44 -36 -58 -81 -80 -99 -51 -273 -34 -336 32
-43 45 -45 103 -6 172 55 97 97 128 173 128 57 0 101 -24 126 -69 30 -53 28
-86 -8 -122 -26 -27 -35 -30 -82 -27 -46 3 -55 7 -65 30 -24 49 17 88 49 48
22 -27 48 -19 48 14 0 67 -106 72 -143 8 -17 -29 -18 -39 -8 -72 17 -57 52
-80 119 -80 94 0 152 53 152 140 0 169 -221 239 -340 108 -15 -16 -30 -26 -33
-21 -5 8 37 112 45 113 2 0 28 9 58 20 72 26 132 20 221 -21z"/>
<path d="M1113 2979 c-42 -15 -21 -46 23 -35 25 7 33 31 12 39 -7 2 -23 1 -35
-4z"/>
<path d="M2476 2575 c-15 -16 -34 -25 -54 -25 -31 0 -42 -14 -42 -54 0 -12 -5
-27 -11 -33 -7 -7 -9 -19 -6 -27 5 -13 21 -16 74 -15 127 3 205 13 214 29 12
22 49 108 49 114 0 18 -67 36 -130 36 -63 0 -74 -3 -94 -25z"/>
<path d="M2764 2571 c-2 -2 -4 -13 -4 -23 0 -14 -6 -18 -27 -16 -22 3 -28 -2
-34 -27 -4 -16 -10 -40 -14 -52 -7 -21 -5 -21 117 -25 67 -2 129 -2 136 0 11
4 92 130 92 144 0 6 -259 5 -266 -1z"/>
<path d="M2010 2548 c0 -8 7 -23 15 -34 14 -19 14 -19 15 2 0 12 -7 27 -15 34
-12 10 -15 10 -15 -2z"/>
<path d="M2200 2532 c0 -18 -6 -34 -12 -36 -7 -2 -35 -11 -63 -20 -48 -15 -44
-15 37 -1 34 6 39 4 49 -19 15 -33 29 -34 29 -2 0 37 49 49 82 19 21 -19 23
-18 32 20 l7 28 -66 -7 c-39 -4 -65 -3 -65 3 0 5 -7 18 -15 29 -14 18 -14 17
-15 -14z"/>
<path d="M1988 2453 c6 -2 18 -2 25 0 6 3 1 5 -13 5 -14 0 -19 -2 -12 -5z"/>
<path d="M1853 2433 c9 -2 25 -2 35 0 9 3 1 5 -18 5 -19 0 -27 -2 -17 -5z"/>
<path d="M2442 2378 c-6 -7 -12 -29 -14 -48 -3 -34 -4 -35 -50 -38 -27 -2 -48
-8 -48 -14 0 -7 19 -8 59 -4 47 5 72 2 117 -13 32 -12 60 -19 62 -16 7 6 42
106 45 125 3 20 -154 28 -171 8z"/>
<path d="M2646 2368 c-9 -12 -16 -29 -16 -36 0 -8 -7 -29 -16 -48 -9 -19 -14
-40 -11 -48 7 -18 95 -35 169 -33 l57 2 41 83 40 83 -26 9 c-14 6 -70 10 -124
10 -91 0 -100 -2 -114 -22z"/>
<path d="M3323 2378 c-25 -32 -44 -81 -35 -90 18 -18 49 9 55 49 7 41 -4 62
-20 41z"/>
<path d="M2973 2373 c-16 -6 -83 -125 -83 -146 0 -14 12 -17 73 -17 85 0 94 5
136 78 37 63 38 78 9 86 -27 7 -118 7 -135 -1z"/>
<path d="M3227 2368 c-36 -13 -99 -128 -70 -128 33 1 65 26 93 75 37 63 33 74
-23 53z"/>
<path d="M2244 2343 c8 -40 -2 -49 -67 -63 -68 -14 -84 -6 -89 42 -2 18 -9 33
-16 36 -11 3 -12 -6 -7 -41 6 -39 4 -46 -16 -61 l-23 -16 25 0 c14 0 31 -6 38
-12 10 -11 15 -9 29 8 21 27 132 45 132 22 1 -7 8 0 16 15 12 23 13 35 4 63
-14 41 -34 46 -26 7z"/>
<path d="M202 2341 c-48 -9 -44 -25 8 -33 67 -10 443 -9 459 1 8 5 11 16 8 25
-6 14 -33 16 -224 15 -120 -1 -233 -4 -251 -8z"/>
<path d="M1816 2322 c-2 -4 -1 -14 5 -22 14 -23 11 -52 -8 -73 -18 -20 -17
-20 43 -14 33 4 71 11 85 16 20 8 16 10 -28 10 -55 1 -73 16 -73 60 0 21 -15
37 -24 23z"/>
<path d="M535 2245 c-5 -2 -22 -6 -37 -9 -47 -11 -31 -24 44 -36 72 -12 246
-9 281 5 24 10 21 32 -5 39 -24 6 -265 7 -283 1z"/>
<path d="M3269 2240 c-22 -13 -79 -102 -79 -123 0 -42 66 -3 96 55 35 70 29
95 -17 68z"/>
<path d="M3117 2179 c-21 -12 -59 -85 -55 -104 2 -11 9 -10 39 1 26 11 41 27
57 60 12 24 22 47 22 49 0 9 -45 5 -63 -6z"/>
<path d="M2738 2160 c-18 -13 -42 -20 -75 -21 -26 -1 -59 -5 -73 -10 -15 -5
20 -6 90 -3 63 4 118 8 123 11 10 6 9 33 -2 33 -5 0 -16 2 -23 5 -8 3 -26 -3
-40 -15z"/>
<path d="M2854 2162 c-18 -12 -31 -44 -38 -93 l-7 -46 81 0 81 -1 29 65 c17
36 30 70 30 74 0 11 -160 12 -176 1z"/>
<path d="M1863 2108 l2 -53 -35 -6 c-31 -6 -29 -7 18 -8 58 -1 61 3 42 71 -16
57 -30 55 -27 -4z"/>
<path d="M2103 2134 c2 -22 -4 -29 -33 -40 -19 -7 -49 -13 -67 -13 -17 -1 -35
-6 -38 -12 -5 -7 7 -8 41 -3 27 5 65 8 84 9 31 0 35 -3 38 -27 5 -42 32 -36
32 6 0 28 4 35 22 38 12 2 23 9 26 15 2 9 -5 11 -25 7 -24 -5 -33 -1 -46 20
-22 33 -36 33 -34 0z"/>
<path d="M2276 2125 c-7 -28 12 -105 26 -105 4 0 8 23 8 50 0 32 4 50 12 50
12 0 -21 29 -33 30 -4 0 -10 -11 -13 -25z"/>
<path d="M436 2127 c-27 -12 -27 -13 -11 -27 14 -11 55 -16 169 -19 130 -3
154 -1 165 13 11 13 11 19 1 31 -10 12 -40 15 -154 15 -88 -1 -152 -5 -170
-13z"/>
<path d="M2413 2123 c15 -2 39 -2 55 0 15 2 2 4 -28 4 -30 0 -43 -2 -27 -4z"/>
<path d="M3184 2060 c-29 -12 -79 -79 -66 -92 13 -13 75 14 96 43 32 46 18 69
-30 49z"/>
<path d="M3075 2010 c3 -5 8 -10 11 -10 2 0 4 5 4 10 0 6 -5 10 -11 10 -5 0
-7 -4 -4 -10z"/>
<path d="M2853 1983 l-52 -4 6 -47 c7 -57 8 -58 36 -44 12 6 31 13 42 16 12 3
29 20 39 37 15 26 16 33 5 40 -8 5 -16 8 -19 7 -3 -1 -29 -3 -57 -5z"/>
<path d="M2105 1944 c-22 -8 -74 -17 -115 -18 -59 -3 -76 -7 -78 -20 -5 -21
24 -31 51 -18 31 15 97 32 128 32 15 0 37 9 50 20 28 23 19 24 -36 4z"/>
<path d="M2304 1938 c3 -13 6 -29 6 -35 0 -21 17 -15 23 8 7 28 -2 49 -20 49
-11 0 -14 -6 -9 -22z"/>
<path d="M2553 1943 c20 -2 54 -2 75 0 20 2 3 4 -38 4 -41 0 -58 -2 -37 -4z"/>
<path d="M3074 1893 c-30 -32 -41 -70 -25 -86 9 -9 17 -5 34 17 18 21 28 27
44 22 26 -8 38 7 18 24 -8 7 -15 21 -15 31 0 27 -27 23 -56 -8z"/>
<path d="M2788 1824 c-9 -19 -22 -30 -38 -32 -14 -2 -46 -6 -72 -9 -30 -3 -49
-11 -53 -21 -11 -30 12 -34 65 -11 46 20 56 21 84 10 61 -25 64 -24 80 8 19
36 21 71 4 71 -7 0 -23 3 -35 6 -18 5 -25 1 -35 -22z"/>
<path d="M2172 1817 c-15 -18 -3 -60 15 -53 8 3 35 6 60 6 44 0 45 1 29 19
-11 12 -25 16 -43 13 -21 -4 -25 -2 -20 12 8 20 -25 23 -41 3z"/>
<path d="M2480 1807 c-19 -12 -55 -24 -80 -27 -34 -4 -46 -10 -48 -24 -3 -16
0 -18 19 -11 13 4 58 10 99 12 58 4 70 8 52 14 -28 11 -24 29 9 46 21 11 21
13 4 12 -11 0 -36 -10 -55 -22z"/>
<path d="M2050 1794 c-19 -8 -45 -13 -57 -11 -13 2 -28 -2 -34 -9 -6 -8 -23
-14 -38 -15 -25 0 -25 0 -4 -9 29 -12 183 31 183 51 0 12 -9 11 -50 -7z"/>
<path d="M2920 1791 c0 -12 2 -21 4 -21 2 0 12 -3 21 -6 13 -5 16 -2 13 17 -4
31 -38 39 -38 10z"/>
<path d="M2194 1599 c-11 -18 8 -26 74 -33 52 -6 62 -4 62 8 0 8 -9 20 -19 26
-26 13 -108 13 -117 -1z"/>
<path d="M2939 1580 c-21 -17 -22 -21 -9 -30 8 -5 37 -10 63 -10 47 0 49 -1
79 -50 33 -53 42 -59 52 -34 18 46 -4 108 -45 130 -41 21 -112 18 -140 -6z"/>
<path d="M2157 1513 c-4 -3 0 -18 9 -32 44 -69 114 -82 166 -31 25 25 28 33
18 45 -15 18 -40 19 -75 3 -21 -10 -31 -9 -55 5 -30 18 -52 21 -63 10z"/>
<path d="M2910 1456 c0 -24 66 -75 90 -69 25 7 32 17 25 35 -14 36 -115 66
-115 34z"/>
<path d="M1895 1422 c-17 -10 -39 -35 -49 -55 -19 -35 -19 -36 -1 -77 24 -54
58 -80 104 -80 65 0 110 44 111 107 0 57 -16 87 -56 107 -45 21 -72 20 -109
-2z m73 -90 c4 -30 -26 -42 -44 -17 -10 14 -11 22 -2 32 16 20 42 12 46 -15z"/>
<path d="M2765 1401 c-45 -19 -81 -90 -69 -137 7 -28 74 -74 119 -81 48 -8 91
21 111 74 14 36 15 48 4 73 -20 48 -119 90 -165 71z m83 -103 c2 -9 -6 -22
-19 -28 -17 -10 -24 -9 -37 3 -8 9 -12 23 -8 32 8 22 60 16 64 -7z"/>
<path d="M3373 1193 c-31 -12 4 -99 44 -109 49 -13 56 22 18 79 -25 36 -36 41
-62 30z"/>
<path d="M3310 1031 l-25 -7 0 -238 c0 -220 1 -240 18 -250 15 -9 22 -7 36 10
14 18 33 23 97 29 94 9 116 18 112 48 -3 19 -9 22 -53 22 -27 0 -69 -4 -92 -8
l-43 -7 0 40 0 40 54 0 c76 0 106 13 106 46 l0 26 -77 -4 -78 -3 -3 28 c-3 27
-3 27 57 27 33 0 63 5 66 10 10 17 25 11 25 -9 0 -34 12 -51 35 -51 38 0 48
23 40 87 -11 92 -31 129 -79 153 -43 20 -141 26 -196 11z m168 -77 c12 -8 22
-25 22 -37 0 -20 -6 -22 -57 -24 -31 -2 -65 -6 -75 -9 -16 -5 -18 1 -18 40 l0
46 53 0 c31 0 61 -6 75 -16z"/>
<path d="M2119 1021 c-49 -16 -67 -31 -94 -77 -24 -40 -27 -55 -23 -107 4 -51
9 -64 35 -87 25 -23 77 -47 142 -66 11 -4 10 -9 -6 -27 -42 -46 -73 -113 -73
-158 0 -60 38 -138 89 -180 l41 -34 -20 -40 c-24 -47 -25 -78 -4 -95 22 -19
54 16 61 68 4 29 11 43 25 48 28 9 68 -4 68 -22 0 -25 62 -75 90 -72 38 4 38
41 2 67 -17 12 -35 21 -41 21 -15 0 -14 27 2 37 7 4 23 22 35 40 19 27 22 44
22 137 0 109 -12 158 -43 185 -25 20 -21 28 20 36 49 9 110 41 121 63 33 64
19 143 -36 192 -62 55 -118 72 -262 76 -69 2 -137 0 -151 -5z m67 -111 c8 -68
26 -92 51 -67 11 11 16 31 14 66 -1 54 4 63 37 54 19 -5 22 -12 22 -64 0 -44
4 -61 15 -65 28 -11 45 16 45 68 0 50 0 50 28 43 42 -10 99 -53 112 -86 17
-39 -6 -74 -57 -89 -74 -21 -194 -24 -263 -6 -74 19 -124 59 -116 91 14 61 36
100 58 106 44 13 47 10 54 -51z m167 -290 c32 -25 47 -75 47 -157 0 -52 -4
-66 -26 -92 -30 -36 -50 -38 -104 -11 -46 24 -53 45 -13 37 38 -7 73 8 73 32
0 25 -27 34 -93 29 -43 -2 -52 0 -55 15 -3 17 1 18 50 12 40 -5 58 -3 73 9 28
21 10 48 -39 59 -35 9 -37 11 -30 41 3 17 8 34 11 39 9 15 81 7 106 -13z"/>
<path d="M1323 999 c-58 -14 -123 -84 -123 -134 0 -20 5 -45 10 -56 12 -22 66
-50 133 -70 51 -15 58 -27 26 -47 -11 -7 -29 -34 -40 -60 -36 -83 -16 -175 56
-260 34 -39 34 -40 19 -71 -20 -39 -10 -71 21 -71 18 0 27 9 40 44 14 35 23
45 47 50 26 5 35 0 80 -50 40 -44 56 -54 77 -52 44 5 39 37 -10 80 -38 33 -42
40 -31 55 27 38 42 85 42 132 0 63 -32 166 -61 197 -21 22 -21 24 -3 30 60 19
99 42 129 76 29 31 35 46 35 82 0 53 -24 86 -83 115 -38 18 -60 21 -183 20
-76 -1 -158 -5 -181 -10z m157 -97 c0 -102 61 -112 70 -11 l5 54 39 -2 c52 -4
100 -33 104 -64 4 -30 -37 -71 -87 -88 -42 -14 -134 -14 -183 0 -43 11 -46 16
-21 34 16 12 16 18 5 60 -7 25 -10 51 -7 56 4 5 22 9 41 9 l34 0 0 -48z m-140
-1 c0 -16 4 -41 10 -55 11 -30 -2 -34 -45 -14 -29 13 -31 29 -8 69 22 38 43
37 43 0z m207 -253 c33 -37 43 -64 50 -133 8 -84 -8 -111 -72 -121 -30 -4 -50
-2 -60 6 -18 15 -19 30 -2 30 7 0 21 6 32 13 17 13 17 15 -4 36 -18 18 -30 22
-56 17 -19 -4 -36 -2 -40 4 -4 6 13 10 47 10 64 0 93 17 84 47 -7 23 -33 33
-90 33 -32 0 -37 3 -31 18 4 9 9 25 12 34 10 34 100 38 130 6z"/>
<path d="M2919 997 c-36 -17 -136 -127 -154 -171 -12 -28 -13 -45 -4 -86 9
-42 19 -58 67 -100 31 -28 75 -60 99 -71 40 -19 42 -22 48 -77 13 -131 29
-164 70 -148 16 6 17 17 12 109 l-6 102 40 23 c22 13 53 44 70 70 25 40 29 55
29 116 0 88 -22 139 -79 187 -62 54 -137 72 -192 46z m116 -81 c13 -9 36 -32
52 -52 37 -50 40 -133 4 -182 -12 -18 -28 -31 -35 -29 -16 5 -24 67 -12 95 7
17 5 30 -7 52 -9 15 -17 38 -17 49 0 12 -7 24 -15 27 -21 9 -45 -14 -45 -42 0
-20 -5 -24 -29 -24 -58 0 -64 -53 -8 -68 27 -7 33 -14 38 -48 4 -21 5 -42 2
-47 -7 -12 -61 24 -99 66 -46 50 -45 82 4 138 22 24 45 55 51 68 11 20 18 23
52 18 22 -3 51 -12 64 -21z"/>
<path d="M370 970 c-14 -27 6 -209 25 -229 8 -8 21 -10 34 -6 18 6 21 14 21
70 0 35 3 66 8 69 4 2 24 7 44 11 l36 7 -3 -63 c-3 -56 -7 -64 -29 -76 -53
-28 -24 -63 51 -63 59 0 67 -9 26 -27 -20 -9 -39 -35 -67 -92 l-39 -80 13 -58
c15 -72 43 -127 72 -147 19 -14 21 -19 10 -36 -18 -29 -15 -58 7 -69 21 -12
44 7 55 46 13 41 34 35 71 -22 19 -30 39 -55 44 -55 44 0 54 41 21 83 -11 14
-20 28 -20 32 0 4 17 27 39 51 22 26 43 63 50 89 15 60 14 149 -3 188 -16 40
-70 87 -99 87 -50 1 -44 16 11 29 31 7 65 20 74 28 13 12 21 12 38 3 29 -15
67 -5 81 21 28 54 -59 194 -138 220 -49 16 -197 5 -288 -20 l-70 -20 -20 24
c-25 30 -41 32 -55 5z m290 -124 c0 -67 -15 -94 -45 -82 -10 4 -15 20 -15 53
0 26 -5 55 -10 63 -7 11 -4 17 13 22 54 15 57 12 57 -56z m130 49 c30 -16 70
-72 70 -99 0 -18 -25 -22 -35 -5 -4 6 -28 9 -54 7 l-46 -3 -3 58 c-3 52 -1 57
18 57 12 0 34 -7 50 -15z m-39 -304 c24 -24 29 -38 29 -78 0 -104 -38 -169
-102 -180 -26 -4 -45 -1 -63 11 -31 21 -24 36 16 36 41 0 69 16 69 40 0 27
-16 34 -75 31 -39 -1 -54 2 -58 13 -9 23 9 28 72 21 46 -5 60 -3 70 9 23 28 5
49 -60 69 -12 4 -15 13 -12 31 5 23 10 26 45 26 30 0 46 -7 69 -29z"/>
<path d="M3415 531 c-52 -5 -60 -9 -63 -28 -5 -34 29 -42 150 -36 105 6 106 6
123 -20 9 -14 23 -63 32 -109 18 -96 30 -115 62 -99 25 14 26 35 6 131 -29
138 -54 163 -168 166 -45 1 -109 -1 -142 -5z"/>
<path d="M3240 365 c-16 -19 -7 -92 13 -113 18 -17 45 -10 54 14 3 9 2 37 -3
63 -7 35 -14 47 -30 49 -11 2 -27 -4 -34 -13z"/>
<path d="M3453 364 c-9 -25 9 -65 40 -88 25 -18 28 -19 43 -4 13 13 22 14 40
6 17 -8 27 -8 39 2 22 18 19 40 -12 72 -30 32 -45 35 -63 13 -12 -14 -15 -14
-36 0 -30 19 -43 19 -51 -1z"/>
<path d="M3345 350 c-4 -13 3 -37 20 -65 21 -37 31 -45 54 -45 37 0 45 22 25
66 -28 59 -86 85 -99 44z"/>
</g>
</svg>
