<?xml version="1.0" standalone="no"?>
<!DOCTYPE svg PUBLIC "-//W3C//DTD SVG 20010904//EN"
 "http://www.w3.org/TR/2001/REC-SVG-20010904/DTD/svg10.dtd">
<svg version="1.0" xmlns="http://www.w3.org/2000/svg"
 width="266.000000pt" height="44.000000pt" viewBox="0 0 266.000000 44.000000"
 preserveAspectRatio="xMidYMid meet">

<g transform="translate(0.000000,44.000000) scale(0.100000,-0.100000)"
fill="#000000" stroke="none">
<path d="M335 408 c-2 -7 -6 -35 -10 -61 -5 -41 -9 -47 -25 -42 -10 3 -21 2
-24 -4 -9 -14 4 -41 20 -41 8 0 18 -9 22 -21 7 -18 9 -17 24 15 9 19 26 37 37
41 24 7 27 23 6 31 -11 5 -12 10 -3 24 9 14 8 21 -5 35 -9 9 -17 21 -17 26 0
14 -20 11 -25 -3z m25 -43 c0 -14 -4 -25 -10 -25 -5 0 -10 11 -10 25 0 14 5
25 10 25 6 0 10 -11 10 -25z"/>
<path d="M152 351 c-11 -7 -10 -11 2 -24 19 -18 98 -17 104 2 3 10 -6 12 -37
8 -28 -3 -44 0 -49 9 -4 8 -13 10 -20 5z"/>
<path d="M874 285 c-38 -16 -75 -65 -77 -102 -2 -22 3 -29 22 -31 40 -6 118
86 108 126 -4 13 -5 12 -6 -4 -1 -29 -78 -114 -103 -114 -15 0 -18 4 -12 23
11 36 26 51 35 35 7 -10 9 -9 9 3 0 19 34 52 43 43 4 -4 9 1 13 10 9 24 3 26
-32 11z"/>
<path d="M1016 285 c-44 -16 -71 -38 -62 -53 3 -5 22 -13 42 -17 l37 -6 -20
-20 c-22 -23 -103 -39 -103 -21 0 6 9 14 21 17 11 4 18 9 16 12 -9 9 -47 -17
-47 -32 0 -20 62 -20 99 0 51 26 46 59 -9 67 -38 5 -27 21 26 40 53 18 85 12
38 -7 -17 -6 -24 -14 -17 -18 15 -9 58 27 49 41 -9 15 -21 15 -70 -3z"/>
<path d="M1435 291 c-50 -15 -95 -69 -95 -113 0 -39 39 -38 80 3 33 34 66 89
52 89 -5 0 -13 -10 -19 -23 -18 -39 -64 -87 -84 -87 -21 0 -25 21 -8 52 9 17
13 18 20 7 7 -11 13 -9 31 10 13 14 15 19 6 12 -10 -8 -18 -9 -18 -3 0 13 28
36 47 38 8 2 17 5 20 7 8 9 -12 14 -32 8z"/>
<path d="M1550 273 c-29 -16 -62 -40 -73 -55 -18 -24 -19 -31 -8 -52 8 -14 19
-22 27 -19 24 9 15 -14 -12 -36 -15 -12 -23 -21 -18 -21 15 0 128 121 152 161
34 57 13 64 -68 22z m65 -13 c-4 -6 -14 -9 -22 -6 -10 4 -13 1 -8 -13 5 -15
-4 -25 -38 -45 -46 -28 -77 -33 -77 -15 0 16 66 75 104 93 31 15 54 8 41 -14z"/>
<path d="M1713 293 c-30 -6 -93 -80 -93 -109 0 -53 56 -41 105 23 19 25 35 53
35 62 0 9 -10 0 -21 -19 -31 -51 -70 -90 -91 -90 -21 0 -22 16 -4 49 10 18 15
21 22 10 6 -10 10 -8 14 11 3 14 18 31 33 38 15 7 27 17 27 23 0 5 -1 8 -2 8
-2 -1 -13 -4 -25 -6z"/>
<path d="M1845 280 c-50 -23 -79 -48 -95 -79 -11 -21 -10 -26 4 -36 8 -7 13
-15 10 -18 -3 -3 5 -3 18 0 22 6 22 5 -7 -27 -23 -25 -25 -30 -9 -22 23 12
124 124 124 138 0 4 7 15 16 25 17 18 12 39 -9 39 -7 0 -30 -9 -52 -20z m55
-15 c-7 -8 -19 -15 -26 -15 -7 0 -11 -6 -8 -14 5 -14 -69 -66 -94 -66 -22 0
-12 26 21 57 41 38 66 52 96 53 20 0 21 -2 11 -15z"/>
<path d="M1995 292 c-45 -9 -105 -92 -91 -127 19 -51 137 45 136 112 -1 10 -7
3 -16 -17 -19 -45 -72 -100 -96 -100 -21 0 -21 -2 -7 39 8 23 15 29 22 22 8
-8 15 -2 24 20 8 20 18 29 27 26 8 -3 17 1 20 10 8 19 6 20 -19 15z"/>
<path d="M160 280 c0 -5 5 -10 11 -10 5 0 7 5 4 10 -3 6 -8 10 -11 10 -2 0 -4
-4 -4 -10z"/>
<path d="M722 264 c-23 -14 -49 -38 -57 -54 -21 -40 -18 -62 3 -24 17 31 58
70 97 92 11 6 16 11 10 12 -5 0 -29 -12 -53 -26z"/>
<path d="M800 281 c0 -4 -11 -20 -26 -36 -14 -15 -22 -30 -19 -34 7 -6 65 57
65 71 0 4 -4 8 -10 8 -5 0 -10 -4 -10 -9z"/>
<path d="M1106 273 c-9 -22 -4 -24 17 -8 14 10 15 14 3 18 -8 3 -17 -1 -20
-10z"/>
<path d="M1168 283 c12 -2 22 -7 22 -11 0 -4 -24 -33 -54 -65 -29 -32 -46 -57
-38 -55 8 2 36 30 62 63 25 33 57 62 71 66 16 5 5 7 -31 7 -30 -1 -45 -3 -32
-5z"/>
<path d="M1285 278 c-33 -18 -85 -71 -85 -86 0 -9 9 -3 22 13 11 15 39 40 61
56 40 29 41 39 2 17z"/>
<path d="M1321 257 c-18 -19 -29 -37 -23 -41 12 -7 65 49 60 64 -2 6 -18 -5
-37 -23z"/>
<path d="M1072 188 c-7 -7 -12 -19 -12 -27 0 -11 5 -8 16 7 18 25 15 39 -4 20z"/>
<path d="M700 164 c-32 -12 -33 -13 -9 -13 15 -1 32 6 39 14 7 8 11 14 9 14
-2 -1 -20 -7 -39 -15z"/>
<path d="M1265 170 c-4 -7 -20 -10 -36 -8 -15 3 -26 1 -23 -4 3 -4 15 -8 27
-8 26 0 54 16 45 25 -3 4 -9 1 -13 -5z"/>
<path d="M210 160 c0 -5 5 -10 10 -10 6 0 10 5 10 10 0 6 -4 10 -10 10 -5 0
-10 -4 -10 -10z"/>
<path d="M310 160 c0 -5 5 -10 10 -10 6 0 10 5 10 10 0 6 -4 10 -10 10 -5 0
-10 -4 -10 -10z"/>
<path d="M250 120 c0 -5 5 -10 10 -10 6 0 10 5 10 10 0 6 -4 10 -10 10 -5 0
-10 -4 -10 -10z"/>
<path d="M54 88 c2 -18 4 -36 5 -40 0 -5 8 -8 17 -8 11 0 13 6 9 19 -3 11 -1
22 5 26 20 12 10 35 -15 35 -22 0 -24 -4 -21 -32z"/>
<path d="M144 103 c2 -10 7 -27 10 -39 8 -27 34 -27 31 0 0 12 3 26 7 33 7 8
3 10 -11 6 -12 -3 -21 -1 -21 6 0 6 -5 11 -11 11 -6 0 -8 -8 -5 -17z m34 -38
c-3 -3 -9 2 -12 12 -6 14 -5 15 5 6 7 -7 10 -15 7 -18z"/>
<path d="M230 108 c0 -10 4 -18 8 -18 5 0 8 -10 8 -22 -1 -29 28 -31 31 -3 l3
20 -9 -20 c-8 -18 -10 -18 -10 -2 -1 10 6 20 14 23 23 9 18 23 -6 17 -12 -4
-25 0 -30 8 -7 11 -9 10 -9 -3z"/>
<path d="M329 118 c-7 -23 -5 -39 6 -48 10 -8 15 -6 20 9 7 22 0 41 -16 41 -5
0 -9 -1 -10 -2z m21 -18 c0 -5 -2 -10 -4 -10 -3 0 -8 5 -11 10 -3 6 -1 10 4
10 6 0 11 -4 11 -10z"/>
<path d="M372 98 c2 -12 9 -23 17 -26 8 -3 11 0 7 6 -3 6 -2 13 4 17 17 11 11
25 -11 25 -15 0 -20 -5 -17 -22z"/>
<path d="M400 60 c-13 -8 -12 -10 3 -10 9 0 17 5 17 10 0 12 -1 12 -20 0z"/>
</g>
</svg>
